name ./resultDataOpenSim/trcMotMarkerGrf/sub09/grf-15-05.mot
datacolumns 19
datarows 12
range 0.48800000 0.53200000
endheader

                time	     ground_force_vx	     ground_force_vy	     ground_force_vz	     ground_force_px	     ground_force_py	     ground_force_pz	   l_ground_force_vx	   l_ground_force_vy	   l_ground_force_vz	   l_ground_force_px	   l_ground_force_py	   l_ground_force_pz	     ground_torque_x	     ground_torque_y	     ground_torque_z	   l_ground_torque_x	   l_ground_torque_y	   l_ground_torque_z	
          0.48800000	         37.95317549	        442.22967294	        -31.94205418	         -0.63246385	          0.00000000	          0.07941232	          0.00000000	          0.00000000	          0.00000000	          0.00000000	          0.00000000	          0.00000000	          0.00000000	          4.50186778	          0.00000000	          0.00000000	          0.00000000	          0.00000000	
          0.49200000	         42.19132067	        448.53281258	        -31.67468625	         -0.63162029	          0.00000000	          0.07963319	          0.00000000	          0.00000000	          0.00000000	          0.00000000	          0.00000000	          0.00000000	          0.00000000	          5.00539486	          0.00000000	          0.00000000	          0.00000000	          0.00000000	
          0.49600000	         46.21337510	        455.49322750	        -31.38795303	         -0.63091859	          0.00000000	          0.07978207	          0.00000000	          0.00000000	          0.00000000	          0.00000000	          0.00000000	          0.00000000	          0.00000000	          5.52723074	          0.00000000	          0.00000000	          0.00000000	          0.00000000	
          0.50000000	         49.93763764	        463.11640061	        -31.29863951	         -0.63029124	          0.00000000	          0.07990428	          0.00000000	          0.00000000	          0.00000000	          0.00000000	          0.00000000	          0.00000000	          0.00000000	          6.01882044	          0.00000000	          0.00000000	          0.00000000	          0.00000000	
          0.50400000	         53.36858970	        471.29098126	        -31.62688985	         -0.62948450	          0.00000000	          0.08009138	          0.00000000	          0.00000000	          0.00000000	          0.00000000	          0.00000000	          0.00000000	          0.00000000	          6.42955948	          0.00000000	          0.00000000	          0.00000000	          0.00000000	
          0.50800000	         56.56154821	        480.01249730	        -32.57281237	         -0.62835505	          0.00000000	          0.08037682	          0.00000000	          0.00000000	          0.00000000	          0.00000000	          0.00000000	          0.00000000	          0.00000000	          6.71672175	          0.00000000	          0.00000000	          0.00000000	          0.00000000	
          0.51200000	         59.62864664	        489.47657618	        -34.24825210	         -0.62707176	          0.00000000	          0.08071186	          0.00000000	          0.00000000	          0.00000000	          0.00000000	          0.00000000	          0.00000000	          0.00000000	          6.85421191	          0.00000000	          0.00000000	          0.00000000	          0.00000000	
          0.51600000	         62.70007251	        499.89442920	        -36.62546004	         -0.62587387	          0.00000000	          0.08103074	          0.00000000	          0.00000000	          0.00000000	          0.00000000	          0.00000000	          0.00000000	          0.00000000	          6.83805388	          0.00000000	          0.00000000	          0.00000000	          0.00000000	
          0.52000000	         65.82557125	        511.25044666	        -39.53196572	         -0.62483050	          0.00000000	          0.08129672	          0.00000000	          0.00000000	          0.00000000	          0.00000000	          0.00000000	          0.00000000	          0.00000000	          6.68780149	          0.00000000	          0.00000000	          0.00000000	          0.00000000	
          0.52400000	         68.93800281	        523.26280430	        -42.66523952	         -0.62377341	          0.00000000	          0.08150238	          0.00000000	          0.00000000	          0.00000000	          0.00000000	          0.00000000	          0.00000000	          0.00000000	          6.44401796	          0.00000000	          0.00000000	          0.00000000	          0.00000000	
          0.52800000	         71.91429888	        535.59246733	        -45.62682086	         -0.62249678	          0.00000000	          0.08163925	          0.00000000	          0.00000000	          0.00000000	          0.00000000	          0.00000000	          0.00000000	          0.00000000	          6.16231429	          0.00000000	          0.00000000	          0.00000000	          0.00000000	
          0.53200000	         74.64379747	        548.10341230	        -47.98453023	         -0.62100578	          0.00000000	          0.08165786	          0.00000000	          0.00000000	          0.00000000	          0.00000000	          0.00000000	          0.00000000	          0.00000000	          5.90460920	          0.00000000	          0.00000000	          0.00000000	          0.00000000	
